<?xml version="1.0" encoding="UTF-8" standalone="no"?>
<!-- Created with Inkscape (http://www.inkscape.org/) -->

<svg
   xmlns:dc="http://purl.org/dc/elements/1.1/"
   xmlns:cc="http://creativecommons.org/ns#"
   xmlns:rdf="http://www.w3.org/1999/02/22-rdf-syntax-ns#"
   xmlns:svg="http://www.w3.org/2000/svg"
   xmlns="http://www.w3.org/2000/svg"
   xmlns:sodipodi="http://sodipodi.sourceforge.net/DTD/sodipodi-0.dtd"
   xmlns:inkscape="http://www.inkscape.org/namespaces/inkscape"
   width="210mm"
   height="297mm"
   viewBox="0 0 210 297"
   version="1.1"
   id="svg4682"
   inkscape:version="0.92.3 (2405546, 2018-03-11)"
   sodipodi:docname="path_c.svg">
  <defs
     id="defs4676" />
  <sodipodi:namedview
     id="base"
     pagecolor="#ffffff"
     bordercolor="#666666"
     borderopacity="1.0"
     inkscape:pageopacity="0.0"
     inkscape:pageshadow="2"
     inkscape:zoom="0.35"
     inkscape:cx="400"
     inkscape:cy="560"
     inkscape:document-units="mm"
     inkscape:current-layer="layer1"
     showgrid="false"
     inkscape:window-width="1920"
     inkscape:window-height="1017"
     inkscape:window-x="-8"
     inkscape:window-y="-8"
     inkscape:window-maximized="1" />
  <metadata
     id="metadata4679">
    <rdf:RDF>
      <cc:Work
         rdf:about="">
        <dc:format>image/svg+xml</dc:format>
        <dc:type
           rdf:resource="http://purl.org/dc/dcmitype/StillImage" />
        <dc:title></dc:title>
      </cc:Work>
    </rdf:RDF>
  </metadata>
  <g
     inkscape:label="Layer 1"
     inkscape:groupmode="layer"
     id="layer1">
    <path
       style="fill:none;stroke:#000000;stroke-width:0.26458332px;stroke-linecap:butt;stroke-linejoin:miter;stroke-opacity:1"
       d="m 163.28571,43.000001 h -21.16666 l -14.3631,0.755951 -25.70238,4.535715 -12.851189,4.535713 -14.363097,11.339287 -15.119046,18.898809 -6.803572,19.654764 -10.583333,21.16666 0.755951,20.41072 -2.267857,36.28571 11.339287,28.72619 9.827379,9.82738 16.630954,9.82738 43.089283,14.3631 30.99405,1.5119 h 31.75 l -1.51191,-18.89881 -21.92261,0.75596 L 127,223.67262 91.470238,213.84524 76.35119,202.50595 62.744048,180.58333 58.208333,155.6369 l 6.803572,-22.67857 8.315476,-31.75 12.095236,-13.607142 21.922623,-16.630951 24.94642,-8.315476 19.65477,-0.755951 h 12.85119 z"
       id="path4684"
       inkscape:connector-curvature="0" />
  </g>
</svg>
